<svg width="19" height="19" viewBox="0 0 19 19" fill="none" xmlns="http://www.w3.org/2000/svg">
<path d="M0.13907 15.6248H18.8306V3.19467H0.13907V15.6248ZM18.877 15.6712V15.6248V15.6712ZM0.0617676 15.7021V3.11737H18.9079V15.7021H0.0617676Z" fill="#353636"/>
<path d="M0 3.14832H18.7689V15.6557H0V3.14832Z" fill="#D64B24"/>
<path d="M3.24687 5.36234L3.64885 6.58371H4.93205L3.8962 7.32582L4.28272 8.54718L3.24687 7.78964L2.21103 8.54718L2.613 7.32582L1.57715 6.58371H2.86036L3.24687 5.36234ZM6.58631 4.71301L6.57085 5.14591L6.95737 5.30051L6.53993 5.40874L6.52447 5.82616L6.29256 5.47058L5.89059 5.56333L6.15342 5.23867L5.93697 4.88308L6.32349 5.05314L6.58631 4.71301ZM8.02412 6.08898L7.83862 6.46005L8.13236 6.75379L7.71493 6.69195L7.52941 7.063L7.46757 6.64557L7.05013 6.58373L7.42118 6.39821L7.35934 5.98078L7.65309 6.27453L8.02412 6.08898ZM7.59124 7.78964L7.73038 8.1916H8.14781L7.80769 8.43897L7.93136 8.84093L7.59124 8.59357L7.25111 8.84093L7.39025 8.43897L7.05012 8.1916H7.46755L7.59124 7.78964ZM6.5863 9.0883L6.55539 9.50573L6.95736 9.66034L6.53993 9.76855L6.50901 10.186L6.29256 9.83039L5.87513 9.93861L6.15342 9.61396L5.92151 9.25836L6.32349 9.41297L6.5863 9.0883Z" fill="#FBDC00"/>
</svg>
