<svg width="14" height="14" viewBox="0 0 14 14" fill="none" xmlns="http://www.w3.org/2000/svg">
<path fill-rule="evenodd" clip-rule="evenodd" d="M9.11947 10.4451C9.46201 10.8829 9.8745 11.375 9.8745 11.375C12.3645 11.2956 13.3473 9.68918 13.3799 9.63591C13.3804 9.63499 13.3807 9.63454 13.3807 9.63456C13.3807 5.94501 11.7307 2.95502 11.7307 2.95502C10.082 1.71633 8.51158 1.75131 8.51158 1.75131L8.35117 1.93464C10.2991 2.53046 11.2049 3.38923 11.2049 3.38923C9.44893 2.42199 7.42873 2.04442 5.44199 2.31216C5.38548 2.31216 5.33632 2.3203 5.28243 2.32923C5.27075 2.33117 5.25884 2.33314 5.24659 2.33507C4.84495 2.37005 3.87161 2.51961 2.64618 3.05754C2.22283 3.25173 1.96955 3.38923 1.96955 3.38923C1.96955 3.38923 2.92118 2.48463 4.98366 1.8876L4.86907 1.7501C4.86907 1.7501 3.2999 1.71512 1.64992 2.95382C1.64992 2.95382 -6.10352e-05 5.94381 -6.10352e-05 9.63335C-6.10352e-05 9.63335 0.961223 11.2942 3.49288 11.375C3.49288 11.375 3.91744 10.8576 4.26119 10.4234C2.80539 9.98795 2.2554 9.0713 2.2554 9.0713C2.2554 9.0713 2.36998 9.1509 2.57623 9.26428C2.58917 9.27954 2.6052 9.29187 2.62327 9.30046C2.63907 9.31118 2.65487 9.319 2.6708 9.32688C2.68891 9.33584 2.70718 9.34488 2.72579 9.35835C2.99492 9.50697 3.27423 9.63635 3.56163 9.74552C4.10658 9.96152 4.67019 10.127 5.24539 10.24C6.80205 10.5389 8.4123 10.372 9.8745 9.76C10.2761 9.61044 10.7224 9.39092 11.1928 9.08215C11.1928 9.08215 10.6199 10.0205 9.11947 10.4451ZM3.37768 7.29862C3.37768 6.59909 3.89268 6.02621 4.54637 6.02621C5.19886 6.02621 5.72712 6.59789 5.71385 7.29862C5.71385 7.99573 5.19886 8.57103 4.54637 8.57103C3.90474 8.57103 3.37768 7.99573 3.37768 7.29862ZM7.56036 7.29862C7.56036 6.59909 8.07535 6.02621 8.72905 6.02621C9.38154 6.02621 9.89532 6.59789 9.89653 7.29862C9.89653 7.99573 9.38154 8.57103 8.72905 8.57103C8.08741 8.57103 7.56036 7.99573 7.56036 7.29862Z" fill="white"/>
</svg>
