<svg width="31" height="30" viewBox="0 0 31 30" fill="none" xmlns="http://www.w3.org/2000/svg">
<path fill-rule="evenodd" clip-rule="evenodd" d="M20.5544 23.5977C21.3264 24.5845 22.2561 25.6936 22.2561 25.6936C27.8682 25.5146 30.0833 21.894 30.1568 21.7739C30.1581 21.7719 30.1587 21.7708 30.1587 21.7709C30.1587 13.4551 26.4399 6.71598 26.4399 6.71598C22.7237 3.92411 19.1843 4.00294 19.1843 4.00294L18.8227 4.41615C23.213 5.75908 25.2546 7.69463 25.2546 7.69463C21.2969 5.51459 16.7436 4.66358 12.2657 5.26703C12.1384 5.26703 12.0276 5.2854 11.9061 5.30552C11.8798 5.30988 11.853 5.31433 11.8254 5.31869C10.9201 5.39752 8.7263 5.73461 5.96433 6.94705C5.01014 7.38472 4.43927 7.69463 4.43927 7.69463C4.43927 7.69463 6.58414 5.65577 11.2327 4.31013L10.9745 4.00023C10.9745 4.00023 7.43774 3.92139 3.71887 6.71326C3.71887 6.71326 0 13.4524 0 21.7682C0 21.7682 2.16662 25.5115 7.8727 25.6936C7.8727 25.6936 8.8296 24.5274 9.60436 23.5488C6.32317 22.5674 5.08354 20.5014 5.08354 20.5014C5.08354 20.5014 5.3418 20.6808 5.80666 20.9363C5.83582 20.9707 5.87195 20.9985 5.91268 21.0179C5.9483 21.042 5.98392 21.0597 6.01982 21.0774C6.06063 21.0976 6.10181 21.118 6.14375 21.1484C6.75034 21.4833 7.37988 21.7749 8.02765 22.021C9.25589 22.5078 10.5262 22.8809 11.8226 23.1356C15.3312 23.8092 18.9605 23.4329 22.2561 22.0536C23.1614 21.7165 24.1672 21.2218 25.2274 20.5258C25.2274 20.5258 23.9361 22.6408 20.5544 23.5977ZM7.61307 16.5058C7.61307 14.9292 8.77381 13.638 10.2472 13.638C11.7178 13.638 12.9084 14.9265 12.8785 16.5058C12.8785 18.0771 11.7178 19.3737 10.2472 19.3737C8.80099 19.3737 7.61307 18.0771 7.61307 16.5058ZM17.0403 16.5058C17.0403 14.9292 18.2011 13.638 19.6744 13.638C21.1451 13.638 22.3031 14.9265 22.3058 16.5058C22.3058 18.0771 21.1451 19.3737 19.6744 19.3737C18.2283 19.3737 17.0403 18.0771 17.0403 16.5058Z" fill="#A99CEC"/>
</svg>
