<svg width="68" height="68" viewBox="0 0 68 68" fill="none" xmlns="http://www.w3.org/2000/svg">
<rect opacity="0.5" width="68" height="68" rx="11.102" fill="#5E4B85"/>
<path fill-rule="evenodd" clip-rule="evenodd" d="M42.6667 17H24.3333C20.2832 17 17 20.2832 17 24.3333V42.6667C17 46.7168 20.2832 50 24.3333 50H42.6667C46.7168 50 50 46.7168 50 42.6667V24.3333C50 20.2832 46.7168 17 42.6667 17ZM43.5833 25.2493C44.5959 25.2493 45.4167 24.4285 45.4167 23.416C45.4167 22.4034 44.5959 21.5826 43.5833 21.5826C42.5708 21.5826 41.75 22.4034 41.75 23.416C41.75 24.4285 42.5708 25.2493 43.5833 25.2493ZM33.5 25.2493C28.9436 25.2493 25.25 28.943 25.25 33.4993C25.25 38.0557 28.9436 41.7493 33.5 41.7493C38.0564 41.7493 41.75 38.0557 41.75 33.4993C41.75 28.943 38.0564 25.2493 33.5 25.2493ZM27.0833 33.4993C27.0833 29.9555 29.9562 27.0827 33.5 27.0827C37.0438 27.0827 39.9167 29.9555 39.9167 33.4993C39.9167 37.0432 37.0438 39.916 33.5 39.916C29.9562 39.916 27.0833 37.0432 27.0833 33.4993Z" fill="#A99CEC"/>
</svg>
