<svg width="12" height="12" viewBox="0 0 12 12" fill="none" xmlns="http://www.w3.org/2000/svg">
<g clip-path="url(#clip0_459_1055)">
<path d="M4.60599 10.2638C4.53115 10.264 4.45702 10.2493 4.38787 10.2206C4.31873 10.1919 4.25594 10.1498 4.20314 10.0966L0.30203 6.18789C0.195385 6.08074 0.135498 5.93558 0.135498 5.78425C0.135498 5.63293 0.195385 5.48777 0.30203 5.38062C0.40982 5.27289 0.552723 5.21344 0.70488 5.21344C0.857037 5.21344 1.00021 5.27289 1.10773 5.38062L4.60626 8.88598L11.0303 2.4488C11.0831 2.39561 11.1459 2.35345 11.215 2.32475C11.2842 2.29605 11.3583 2.28139 11.4332 2.28162C11.5854 2.28162 11.7285 2.3408 11.836 2.4488C11.9426 2.55599 12.0025 2.70113 12.0025 2.85244C12.0025 3.00374 11.9426 3.14888 11.836 3.25607L5.00884 10.0966C4.95609 10.1498 4.89331 10.192 4.82415 10.2207C4.755 10.2494 4.68084 10.2641 4.60599 10.2638V10.2638Z" fill="white"/>
</g>
<defs>
<clipPath id="clip0_459_1055">
<rect width="12" height="12" fill="white"/>
</clipPath>
</defs>
</svg>
