<svg width="45" height="44" viewBox="0 0 45 44" fill="none" xmlns="http://www.w3.org/2000/svg">
<mask id="path-1-outside-1_322_816" maskUnits="userSpaceOnUse" x="0" y="-0.394287" width="45" height="44" fill="black">
<rect fill="white" y="-0.394287" width="45" height="44"/>
<path d="M1.07288 21.2999C1.03263 21.2999 1 21.2673 1 21.227V0.678793C1 0.638541 1.03263 0.605911 1.07288 0.605911H3.90425C3.93518 0.605911 3.96274 0.625433 3.973 0.654609L8.79745 14.3699C8.82465 14.4473 8.93908 14.4277 8.93908 14.3457V0.678793C8.93908 0.638542 8.97171 0.605911 9.01196 0.605911H11.5126C11.5528 0.605911 11.5854 0.638541 11.5854 0.678793V21.227C11.5854 21.2673 11.5528 21.2999 11.5126 21.2999H8.68181C8.65058 21.2999 8.62282 21.28 8.61279 21.2504L3.98687 7.60857C3.96039 7.53048 3.84497 7.54952 3.84497 7.63198V9.76994C3.84497 9.76994 3.84497 11.3291 3.84497 12.0094C3.84497 12.6543 3.84497 20.424 3.84497 21.2321C3.84497 21.2723 3.81234 21.2999 3.77208 21.2999H1.07288Z"/>
<path d="M14.889 21.3C14.8488 21.3 14.8162 21.2674 14.8162 21.2271V0.678903C14.8162 0.638652 14.8488 0.606022 14.889 0.606022H23.5203C23.5605 0.606022 23.5932 0.638652 23.5932 0.678903V3.22568C23.5932 3.26593 23.5605 3.29856 23.5203 3.29856H18.0478C18.0075 3.29856 17.9749 3.33119 17.9749 3.37144V9.34935C17.9749 9.3896 18.0075 9.42223 18.0478 9.42223H22.7915C22.8317 9.42223 22.8643 9.45486 22.8643 9.49511V12.0419C22.8643 12.0821 22.8317 12.1148 22.7915 12.1148H18.0478C18.0075 12.1148 17.9749 12.1474 17.9749 12.1876V21.2271C17.9749 21.2674 17.9422 21.3 17.902 21.3H14.889Z"/>
<path d="M28.6077 21.3C28.5675 21.3 28.5348 21.2674 28.5348 21.2271V3.37144C28.5348 3.33119 28.5022 3.29856 28.462 3.29856H24.9472C24.907 3.29856 24.8744 3.26593 24.8744 3.22568V0.678903C24.8744 0.638652 24.907 0.606022 24.9472 0.606022H35.3582C35.3984 0.606022 35.4311 0.638652 35.4311 0.678903V3.22568C35.4311 3.26593 35.3984 3.29856 35.3582 3.29856H31.8435C31.8032 3.29856 31.7706 3.33119 31.7706 3.37144V21.2271C31.7706 21.2674 31.738 21.3 31.6977 21.3H28.6077Z"/>
<path d="M32.4612 43.279C32.5014 43.279 32.534 43.2464 32.534 43.2061L32.534 22.6579C32.534 22.6176 32.5014 22.585 32.4612 22.585H29.6298C29.5989 22.585 29.5713 22.6045 29.561 22.6337L24.7366 36.349C24.7094 36.4264 24.595 36.4068 24.595 36.3249L24.595 22.6579C24.595 22.6177 24.5623 22.585 24.5221 22.585L22.0215 22.585C21.9812 22.585 21.9486 22.6176 21.9486 22.6579L21.9486 43.2061C21.9486 43.2464 21.9812 43.279 22.0215 43.279H24.8522C24.8835 43.279 24.9112 43.2591 24.9212 43.2295L29.5472 29.5877C29.5736 29.5096 29.6891 29.5286 29.6891 29.6111V31.749C29.6891 31.749 29.6891 33.3082 29.6891 33.9885C29.6891 34.6334 29.6891 42.4032 29.6891 43.2112C29.6891 43.2515 29.7217 43.279 29.762 43.279H32.4612Z"/>
<path d="M18.9275 22.5854C18.9678 22.5854 19.0004 22.618 19.0004 22.6582L19.0004 43.2065C19.0004 43.2467 18.9678 43.2793 18.9275 43.2793H15.8632C15.823 43.2793 15.7904 43.2467 15.7904 43.2065L15.7904 25.3508C15.7904 25.3105 15.7577 25.2779 15.7175 25.2779H10.8667C10.8264 25.2779 10.7938 25.2453 10.7938 25.205V22.6582C10.7938 22.618 10.8264 22.5854 10.8667 22.5854H18.9275Z"/>
<path d="M7.72552 22.5854C7.76577 22.5854 7.7984 22.618 7.7984 22.6582L7.7984 30.0425C7.7984 30.0497 7.79947 30.0569 7.80159 30.0638L11.8194 43.1851C11.8338 43.232 11.7987 43.2793 11.7497 43.2793H9.06031C9.02734 43.2793 8.99847 43.2572 8.98992 43.2254L6.50083 33.9521C6.48153 33.8802 6.37955 33.8801 6.36009 33.9519L3.84993 43.2255C3.84133 43.2573 3.8125 43.2793 3.77958 43.2793H1.11174C1.06275 43.2793 1.02771 43.232 1.04205 43.1851L5.05989 30.0638C5.06201 30.0569 5.06308 30.0497 5.06308 30.0425L5.06308 22.6582C5.06308 22.618 5.09571 22.5854 5.13596 22.5854H7.72552Z"/>
<path fill-rule="evenodd" clip-rule="evenodd" d="M40.3692 43.3944C42.7842 43.3944 44.7421 41.4366 44.7421 39.0215L44.7421 4.97859C44.7421 2.56352 42.7842 0.605713 40.3692 0.605713C37.9541 0.605713 35.9963 2.56352 35.9963 4.97859L35.9963 39.0215C35.9963 41.4366 37.9541 43.3944 40.3692 43.3944ZM40.3692 40.4435C41.1742 40.4435 41.8268 39.7909 41.8268 38.9859L41.8268 5.01437C41.8268 4.20934 41.1742 3.55674 40.3692 3.55674C39.5642 3.55674 38.9116 4.20935 38.9116 5.01437L38.9116 38.9859C38.9116 39.7909 39.5642 40.4435 40.3692 40.4435Z"/>
</mask>
<path d="M1.07288 21.2999C1.03263 21.2999 1 21.2673 1 21.227V0.678793C1 0.638541 1.03263 0.605911 1.07288 0.605911H3.90425C3.93518 0.605911 3.96274 0.625433 3.973 0.654609L8.79745 14.3699C8.82465 14.4473 8.93908 14.4277 8.93908 14.3457V0.678793C8.93908 0.638542 8.97171 0.605911 9.01196 0.605911H11.5126C11.5528 0.605911 11.5854 0.638541 11.5854 0.678793V21.227C11.5854 21.2673 11.5528 21.2999 11.5126 21.2999H8.68181C8.65058 21.2999 8.62282 21.28 8.61279 21.2504L3.98687 7.60857C3.96039 7.53048 3.84497 7.54952 3.84497 7.63198V9.76994C3.84497 9.76994 3.84497 11.3291 3.84497 12.0094C3.84497 12.6543 3.84497 20.424 3.84497 21.2321C3.84497 21.2723 3.81234 21.2999 3.77208 21.2999H1.07288Z" fill="white"/>
<path d="M14.889 21.3C14.8488 21.3 14.8162 21.2674 14.8162 21.2271V0.678903C14.8162 0.638652 14.8488 0.606022 14.889 0.606022H23.5203C23.5605 0.606022 23.5932 0.638652 23.5932 0.678903V3.22568C23.5932 3.26593 23.5605 3.29856 23.5203 3.29856H18.0478C18.0075 3.29856 17.9749 3.33119 17.9749 3.37144V9.34935C17.9749 9.3896 18.0075 9.42223 18.0478 9.42223H22.7915C22.8317 9.42223 22.8643 9.45486 22.8643 9.49511V12.0419C22.8643 12.0821 22.8317 12.1148 22.7915 12.1148H18.0478C18.0075 12.1148 17.9749 12.1474 17.9749 12.1876V21.2271C17.9749 21.2674 17.9422 21.3 17.902 21.3H14.889Z" fill="white"/>
<path d="M28.6077 21.3C28.5675 21.3 28.5348 21.2674 28.5348 21.2271V3.37144C28.5348 3.33119 28.5022 3.29856 28.462 3.29856H24.9472C24.907 3.29856 24.8744 3.26593 24.8744 3.22568V0.678903C24.8744 0.638652 24.907 0.606022 24.9472 0.606022H35.3582C35.3984 0.606022 35.4311 0.638652 35.4311 0.678903V3.22568C35.4311 3.26593 35.3984 3.29856 35.3582 3.29856H31.8435C31.8032 3.29856 31.7706 3.33119 31.7706 3.37144V21.2271C31.7706 21.2674 31.738 21.3 31.6977 21.3H28.6077Z" fill="white"/>
<path d="M32.4612 43.279C32.5014 43.279 32.534 43.2464 32.534 43.2061L32.534 22.6579C32.534 22.6176 32.5014 22.585 32.4612 22.585H29.6298C29.5989 22.585 29.5713 22.6045 29.561 22.6337L24.7366 36.349C24.7094 36.4264 24.595 36.4068 24.595 36.3249L24.595 22.6579C24.595 22.6177 24.5623 22.585 24.5221 22.585L22.0215 22.585C21.9812 22.585 21.9486 22.6176 21.9486 22.6579L21.9486 43.2061C21.9486 43.2464 21.9812 43.279 22.0215 43.279H24.8522C24.8835 43.279 24.9112 43.2591 24.9212 43.2295L29.5472 29.5877C29.5736 29.5096 29.6891 29.5286 29.6891 29.6111V31.749C29.6891 31.749 29.6891 33.3082 29.6891 33.9885C29.6891 34.6334 29.6891 42.4032 29.6891 43.2112C29.6891 43.2515 29.7217 43.279 29.762 43.279H32.4612Z" fill="white"/>
<path d="M18.9275 22.5854C18.9678 22.5854 19.0004 22.618 19.0004 22.6582L19.0004 43.2065C19.0004 43.2467 18.9678 43.2793 18.9275 43.2793H15.8632C15.823 43.2793 15.7904 43.2467 15.7904 43.2065L15.7904 25.3508C15.7904 25.3105 15.7577 25.2779 15.7175 25.2779H10.8667C10.8264 25.2779 10.7938 25.2453 10.7938 25.205V22.6582C10.7938 22.618 10.8264 22.5854 10.8667 22.5854H18.9275Z" fill="white"/>
<path d="M7.72552 22.5854C7.76577 22.5854 7.7984 22.618 7.7984 22.6582L7.7984 30.0425C7.7984 30.0497 7.79947 30.0569 7.80159 30.0638L11.8194 43.1851C11.8338 43.232 11.7987 43.2793 11.7497 43.2793H9.06031C9.02734 43.2793 8.99847 43.2572 8.98992 43.2254L6.50083 33.9521C6.48153 33.8802 6.37955 33.8801 6.36009 33.9519L3.84993 43.2255C3.84133 43.2573 3.8125 43.2793 3.77958 43.2793H1.11174C1.06275 43.2793 1.02771 43.232 1.04205 43.1851L5.05989 30.0638C5.06201 30.0569 5.06308 30.0497 5.06308 30.0425L5.06308 22.6582C5.06308 22.618 5.09571 22.5854 5.13596 22.5854H7.72552Z" fill="white"/>
<path fill-rule="evenodd" clip-rule="evenodd" d="M40.3692 43.3944C42.7842 43.3944 44.7421 41.4366 44.7421 39.0215L44.7421 4.97859C44.7421 2.56352 42.7842 0.605713 40.3692 0.605713C37.9541 0.605713 35.9963 2.56352 35.9963 4.97859L35.9963 39.0215C35.9963 41.4366 37.9541 43.3944 40.3692 43.3944ZM40.3692 40.4435C41.1742 40.4435 41.8268 39.7909 41.8268 38.9859L41.8268 5.01437C41.8268 4.20934 41.1742 3.55674 40.3692 3.55674C39.5642 3.55674 38.9116 4.20935 38.9116 5.01437L38.9116 38.9859C38.9116 39.7909 39.5642 40.4435 40.3692 40.4435Z" fill="white"/>
<path d="M1.07288 21.2999C1.03263 21.2999 1 21.2673 1 21.227V0.678793C1 0.638541 1.03263 0.605911 1.07288 0.605911H3.90425C3.93518 0.605911 3.96274 0.625433 3.973 0.654609L8.79745 14.3699C8.82465 14.4473 8.93908 14.4277 8.93908 14.3457V0.678793C8.93908 0.638542 8.97171 0.605911 9.01196 0.605911H11.5126C11.5528 0.605911 11.5854 0.638541 11.5854 0.678793V21.227C11.5854 21.2673 11.5528 21.2999 11.5126 21.2999H8.68181C8.65058 21.2999 8.62282 21.28 8.61279 21.2504L3.98687 7.60857C3.96039 7.53048 3.84497 7.54952 3.84497 7.63198V9.76994C3.84497 9.76994 3.84497 11.3291 3.84497 12.0094C3.84497 12.6543 3.84497 20.424 3.84497 21.2321C3.84497 21.2723 3.81234 21.2999 3.77208 21.2999H1.07288Z" stroke="white" stroke-width="0.291525" mask="url(#path-1-outside-1_322_816)"/>
<path d="M14.889 21.3C14.8488 21.3 14.8162 21.2674 14.8162 21.2271V0.678903C14.8162 0.638652 14.8488 0.606022 14.889 0.606022H23.5203C23.5605 0.606022 23.5932 0.638652 23.5932 0.678903V3.22568C23.5932 3.26593 23.5605 3.29856 23.5203 3.29856H18.0478C18.0075 3.29856 17.9749 3.33119 17.9749 3.37144V9.34935C17.9749 9.3896 18.0075 9.42223 18.0478 9.42223H22.7915C22.8317 9.42223 22.8643 9.45486 22.8643 9.49511V12.0419C22.8643 12.0821 22.8317 12.1148 22.7915 12.1148H18.0478C18.0075 12.1148 17.9749 12.1474 17.9749 12.1876V21.2271C17.9749 21.2674 17.9422 21.3 17.902 21.3H14.889Z" stroke="white" stroke-width="0.291525" mask="url(#path-1-outside-1_322_816)"/>
<path d="M28.6077 21.3C28.5675 21.3 28.5348 21.2674 28.5348 21.2271V3.37144C28.5348 3.33119 28.5022 3.29856 28.462 3.29856H24.9472C24.907 3.29856 24.8744 3.26593 24.8744 3.22568V0.678903C24.8744 0.638652 24.907 0.606022 24.9472 0.606022H35.3582C35.3984 0.606022 35.4311 0.638652 35.4311 0.678903V3.22568C35.4311 3.26593 35.3984 3.29856 35.3582 3.29856H31.8435C31.8032 3.29856 31.7706 3.33119 31.7706 3.37144V21.2271C31.7706 21.2674 31.738 21.3 31.6977 21.3H28.6077Z" stroke="white" stroke-width="0.291525" mask="url(#path-1-outside-1_322_816)"/>
<path d="M32.4612 43.279C32.5014 43.279 32.534 43.2464 32.534 43.2061L32.534 22.6579C32.534 22.6176 32.5014 22.585 32.4612 22.585H29.6298C29.5989 22.585 29.5713 22.6045 29.561 22.6337L24.7366 36.349C24.7094 36.4264 24.595 36.4068 24.595 36.3249L24.595 22.6579C24.595 22.6177 24.5623 22.585 24.5221 22.585L22.0215 22.585C21.9812 22.585 21.9486 22.6176 21.9486 22.6579L21.9486 43.2061C21.9486 43.2464 21.9812 43.279 22.0215 43.279H24.8522C24.8835 43.279 24.9112 43.2591 24.9212 43.2295L29.5472 29.5877C29.5736 29.5096 29.6891 29.5286 29.6891 29.6111V31.749C29.6891 31.749 29.6891 33.3082 29.6891 33.9885C29.6891 34.6334 29.6891 42.4032 29.6891 43.2112C29.6891 43.2515 29.7217 43.279 29.762 43.279H32.4612Z" stroke="white" stroke-width="0.291525" mask="url(#path-1-outside-1_322_816)"/>
<path d="M18.9275 22.5854C18.9678 22.5854 19.0004 22.618 19.0004 22.6582L19.0004 43.2065C19.0004 43.2467 18.9678 43.2793 18.9275 43.2793H15.8632C15.823 43.2793 15.7904 43.2467 15.7904 43.2065L15.7904 25.3508C15.7904 25.3105 15.7577 25.2779 15.7175 25.2779H10.8667C10.8264 25.2779 10.7938 25.2453 10.7938 25.205V22.6582C10.7938 22.618 10.8264 22.5854 10.8667 22.5854H18.9275Z" stroke="white" stroke-width="0.291525" mask="url(#path-1-outside-1_322_816)"/>
<path d="M7.72552 22.5854C7.76577 22.5854 7.7984 22.618 7.7984 22.6582L7.7984 30.0425C7.7984 30.0497 7.79947 30.0569 7.80159 30.0638L11.8194 43.1851C11.8338 43.232 11.7987 43.2793 11.7497 43.2793H9.06031C9.02734 43.2793 8.99847 43.2572 8.98992 43.2254L6.50083 33.9521C6.48153 33.8802 6.37955 33.8801 6.36009 33.9519L3.84993 43.2255C3.84133 43.2573 3.8125 43.2793 3.77958 43.2793H1.11174C1.06275 43.2793 1.02771 43.232 1.04205 43.1851L5.05989 30.0638C5.06201 30.0569 5.06308 30.0497 5.06308 30.0425L5.06308 22.6582C5.06308 22.618 5.09571 22.5854 5.13596 22.5854H7.72552Z" stroke="white" stroke-width="0.291525" mask="url(#path-1-outside-1_322_816)"/>
<path fill-rule="evenodd" clip-rule="evenodd" d="M40.3692 43.3944C42.7842 43.3944 44.7421 41.4366 44.7421 39.0215L44.7421 4.97859C44.7421 2.56352 42.7842 0.605713 40.3692 0.605713C37.9541 0.605713 35.9963 2.56352 35.9963 4.97859L35.9963 39.0215C35.9963 41.4366 37.9541 43.3944 40.3692 43.3944ZM40.3692 40.4435C41.1742 40.4435 41.8268 39.7909 41.8268 38.9859L41.8268 5.01437C41.8268 4.20934 41.1742 3.55674 40.3692 3.55674C39.5642 3.55674 38.9116 4.20935 38.9116 5.01437L38.9116 38.9859C38.9116 39.7909 39.5642 40.4435 40.3692 40.4435Z" stroke="white" stroke-width="0.291525" mask="url(#path-1-outside-1_322_816)"/>
</svg>
