<svg width="68" height="68" viewBox="0 0 68 68" fill="none" xmlns="http://www.w3.org/2000/svg">
<rect opacity="0.5" width="68" height="68" rx="11.102" fill="#5E4B85"/>
<path d="M17 43.9777C18.6751 44.9038 30.8004 51.8934 39.4225 46.5064C48.0446 41.1193 47.5689 31.8381 47.5689 27.5852C48.35 25.9489 50 25.1171 50 20.688C48.3793 22.1852 46.7683 22.6946 45.1672 22.2163C43.5986 19.8246 41.4404 18.7668 38.6926 19.0428C34.571 19.4569 33.0631 23.5006 33.5069 28.7321C27.1518 31.9459 22.1684 26.4024 19.6002 22.2163C18.7421 25.5131 17.9147 29.4711 19.6002 33.8496C20.7239 36.7685 23.425 39.2363 27.7036 41.2529C23.3675 43.6031 19.7996 44.5113 17 43.9777Z" fill="#A99CEC" stroke="#A99CEC" stroke-width="1.73684" stroke-linejoin="round"/>
</svg>
