<svg width="53" height="54" viewBox="0 0 53 54" fill="none" xmlns="http://www.w3.org/2000/svg">
<path fill-rule="evenodd" clip-rule="evenodd" d="M36.5672 9.64978H16.8449C12.488 9.64978 8.95605 13.1818 8.95605 17.5387V37.2609C8.95605 41.6178 12.488 45.1498 16.8449 45.1498H36.5672C40.9241 45.1498 44.4561 41.6178 44.4561 37.2609V17.5387C44.4561 13.1818 40.9241 9.64978 36.5672 9.64978ZM37.5533 18.5241C38.6425 18.5241 39.5255 17.6411 39.5255 16.5519C39.5255 15.4626 38.6425 14.5796 37.5533 14.5796C36.464 14.5796 35.5811 15.4626 35.5811 16.5519C35.5811 17.6411 36.464 18.5241 37.5533 18.5241ZM26.706 18.5241C21.8045 18.5241 17.831 22.4976 17.831 27.3991C17.831 32.3007 21.8045 36.2741 26.706 36.2741C31.6076 36.2741 35.581 32.3007 35.581 27.3991C35.581 22.4976 31.6076 18.5241 26.706 18.5241ZM19.8032 27.3991C19.8032 23.5868 22.8937 20.4963 26.706 20.4963C30.5183 20.4963 33.6088 23.5868 33.6088 27.3991C33.6088 31.2114 30.5183 34.3019 26.706 34.3019C22.8937 34.3019 19.8032 31.2114 19.8032 27.3991Z" fill="white"/>
</svg>
