<svg width="30" height="30" viewBox="0 0 30 30" fill="none" xmlns="http://www.w3.org/2000/svg">
<path fill-rule="evenodd" clip-rule="evenodd" d="M22.2222 2H7.77778C4.5868 2 2 4.5868 2 7.77778V22.2222C2 25.4132 4.5868 28 7.77778 28H22.2222C25.4132 28 28 25.4132 28 22.2222V7.77778C28 4.5868 25.4132 2 22.2222 2ZM22.9444 8.49944C23.7422 8.49944 24.3889 7.85276 24.3889 7.05499C24.3889 6.25722 23.7422 5.61055 22.9444 5.61055C22.1467 5.61055 21.5 6.25722 21.5 7.05499C21.5 7.85276 22.1467 8.49944 22.9444 8.49944ZM15 8.49949C11.4101 8.49949 8.5 11.4096 8.5 14.9995C8.5 18.5894 11.4101 21.4995 15 21.4995C18.5899 21.4995 21.5 18.5894 21.5 14.9995C21.5 11.4096 18.5899 8.49949 15 8.49949ZM9.94444 14.9995C9.94444 12.2074 12.2079 9.94394 15 9.94394C17.7921 9.94394 20.0556 12.2074 20.0556 14.9995C20.0556 17.7916 17.7921 20.055 15 20.055C12.2079 20.055 9.94444 17.7916 9.94444 14.9995Z" fill="#A99CEC"/>
</svg>
