<svg width="32" height="32" viewBox="0 0 32 32" fill="none" xmlns="http://www.w3.org/2000/svg">
<g opacity="0.85">
<path d="M26.7458 3.32581C26.7458 4.05866 26.1517 4.65278 25.4188 4.65278H6.35729C5.62445 4.65278 5.03032 4.05869 5.03032 3.32581C5.03032 2.59297 5.62441 1.99884 6.35729 1.99884H25.4188C26.1517 1.99884 26.7458 2.59293 26.7458 3.32581ZM15.9945 8.26093C15.2617 8.26093 14.6675 8.85502 14.6675 9.5879V28.6494C14.6675 29.3823 15.2616 29.9764 15.9945 29.9764C16.7274 29.9764 17.3215 29.3823 17.3215 28.6494V9.58787C17.3214 8.85502 16.7274 8.26093 15.9945 8.26093ZM16.9362 7.28195C16.418 6.76374 15.6076 6.734 15.126 7.21556L5.35161 16.9899C4.87008 17.4715 4.89979 18.2819 5.41799 18.8001C5.9362 19.3183 6.74666 19.3481 7.22819 18.8665L17.0026 9.09214C17.4841 8.61061 17.4544 7.80015 16.9362 7.28195ZM15.053 7.28195C14.5348 7.80015 14.505 8.61061 14.9866 9.09214L24.761 18.8665C25.2425 19.3481 26.053 19.3184 26.5712 18.8002C27.0894 18.2819 27.1191 17.4715 26.6376 16.99L16.8632 7.21553C16.3816 6.734 15.5712 6.76374 15.053 7.28195Z" fill="white"/>
</g>
</svg>
