<svg width="22" height="22" viewBox="0 0 22 22" fill="none" xmlns="http://www.w3.org/2000/svg">
<path d="M11 20.5824C16.2834 20.5824 20.5824 16.2841 20.5824 11C20.5824 5.71656 16.2835 1.4176 11 1.4176C5.71588 1.4176 1.41762 5.71586 1.41762 11C1.41762 16.2841 5.71588 20.5824 11 20.5824ZM11 2.7926C15.5258 2.7926 19.2074 6.47415 19.2074 11C19.2074 15.5251 15.5258 19.2074 11 19.2074C6.47487 19.2074 2.79262 15.5258 2.79262 11C2.79262 6.47415 6.47487 2.7926 11 2.7926Z" fill="white"/>
<path d="M12.0312 6.53126C12.0312 7.10081 11.5695 7.56252 11 7.56252C10.4304 7.56252 9.96873 7.10081 9.96873 6.53126C9.96873 5.96171 10.4304 5.5 11 5.5C11.5695 5.5 12.0312 5.96171 12.0312 6.53126Z" fill="white"/>
<path d="M11 16.5C11.3795 16.5 11.6875 16.1927 11.6875 15.8125V9.62502C11.6875 9.2455 11.3795 8.9375 11 8.9375C10.6205 8.9375 10.3125 9.2455 10.3125 9.62502V15.8125C10.3125 16.1927 10.6205 16.5 11 16.5Z" fill="white"/>
</svg>
