<svg width="14" height="14" viewBox="0 0 14 14" fill="none" xmlns="http://www.w3.org/2000/svg">
<path d="M1.86652 10.1781C2.38765 10.4662 6.15998 12.6407 8.84242 10.9648C11.5248 9.28878 11.3769 6.40131 11.3769 5.07818C11.6198 4.56912 12.1332 4.31031 12.1332 2.93239C11.629 3.39818 11.1278 3.55666 10.6297 3.40785C10.1416 2.66378 9.4702 2.33468 8.61534 2.42056C7.33306 2.54938 6.86392 3.80741 7.00198 5.435C5.02484 6.43484 3.47447 4.7102 2.67547 3.40785C2.40851 4.43351 2.15109 5.66489 2.67547 7.02709C3.02506 7.9352 3.86541 8.70296 5.19654 9.33036C3.84752 10.0615 2.73751 10.3441 1.86652 10.1781Z" fill="white" stroke="white" stroke-width="0.540351" stroke-linejoin="round"/>
</svg>
