<svg width="30" height="30" viewBox="0 0 30 30" fill="none" xmlns="http://www.w3.org/2000/svg">
<path d="M2 23.0879C3.34714 23.8327 13.0988 29.454 20.0329 25.1215C26.9671 20.7891 26.5845 13.3248 26.5845 9.90451C27.2127 8.58856 28.5397 7.91955 28.5397 4.35757C27.2362 5.56164 25.9407 5.97133 24.653 5.58664C23.3915 3.66319 21.6558 2.81245 19.4459 3.03446C16.1312 3.36746 14.9185 6.61952 15.2754 10.8269C10.1644 13.4115 6.1566 8.95327 4.09117 5.58664C3.40106 8.23802 2.73564 11.4212 4.09117 14.9425C4.99486 17.29 7.16721 19.2747 10.6082 20.8965C7.12097 22.7866 4.25156 23.517 2 23.0879Z" fill="#A99CEC" stroke="#A99CEC" stroke-width="1.39683" stroke-linejoin="round"/>
</svg>
