<svg width="68" height="68" viewBox="0 0 68 68" fill="none" xmlns="http://www.w3.org/2000/svg">
<rect opacity="0.5" width="68" height="68" rx="11.102" fill="#5E4B85"/>
<path fill-rule="evenodd" clip-rule="evenodd" d="M41.372 46.0049C42.4752 47.4151 43.8038 49 43.8038 49C51.8233 48.7441 54.9888 43.5704 55.0938 43.3988C55.0956 43.3958 55.0965 43.3944 55.0965 43.3944C55.0965 31.5112 49.7823 21.8811 49.7823 21.8811C44.472 17.8916 39.4141 18.0042 39.4141 18.0042L38.8975 18.5947C45.1712 20.5137 48.0886 23.2796 48.0886 23.2796C42.4331 20.1643 35.9265 18.9483 29.5276 19.8106C29.3457 19.8106 29.1873 19.8368 29.0137 19.8656C28.9761 19.8718 28.9378 19.8782 28.8983 19.8844C27.6047 19.997 24.4698 20.4787 20.523 22.2113C19.1594 22.8367 18.3437 23.2796 18.3437 23.2796C18.3437 23.2796 21.4087 20.3661 28.0515 18.4432L27.6824 18.0003C27.6824 18.0003 22.6285 17.8877 17.3142 21.8772C17.3142 21.8772 12 31.5073 12 43.3905C12 43.3905 15.0961 48.7397 23.25 49C23.25 49 24.6174 47.3335 25.7245 45.935C21.0357 44.5326 19.2643 41.5803 19.2643 41.5803C19.2643 41.5803 19.6334 41.8367 20.2977 42.2018C20.3393 42.251 20.391 42.2907 20.4492 42.3184C20.5001 42.3529 20.551 42.3781 20.6023 42.4035C20.6606 42.4323 20.7194 42.4614 20.7794 42.5048C21.6462 42.9835 22.5458 43.4002 23.4714 43.7518C25.2266 44.4475 27.0418 44.9806 28.8944 45.3445C33.9081 46.3072 39.0943 45.7694 43.8038 43.7984C45.0974 43.3167 46.5347 42.6097 48.0497 41.6152C48.0497 41.6152 46.2045 44.6375 41.372 46.0049ZM22.879 35.8707C22.879 33.6177 24.5376 31.7725 26.643 31.7725C28.7446 31.7725 30.446 33.6138 30.4032 35.8707C30.4032 38.1159 28.7446 39.9688 26.643 39.9688C24.5765 39.9688 22.879 38.1159 22.879 35.8707ZM36.3504 35.8707C36.3504 33.6177 38.0091 31.7725 40.1145 31.7725C42.216 31.7725 43.8708 33.6138 43.8747 35.8707C43.8747 38.1159 42.216 39.9688 40.1145 39.9688C38.048 39.9688 36.3504 38.1159 36.3504 35.8707Z" fill="#A99CEC"/>
</svg>
