<svg width="18" height="12" viewBox="0 0 18 12" fill="none" xmlns="http://www.w3.org/2000/svg">
<path d="M0 0H18V12H0V0Z" fill="white"/>
<path d="M0 0H18V0.922807H0V0ZM0 1.84561H18V2.76842H0V1.84561ZM0 3.69123H18V4.61404H0V3.69123ZM0 5.53684H18V6.45965H0V5.53684ZM0 7.38596H18V8.30877H0V7.38596ZM0 9.23158H18V10.1544H0V9.23158ZM0 11.0772H18V12H0V11.0772Z" fill="#D80027"/>
<path d="M0 0H9V6.45965H0V0Z" fill="#2E52B2"/>
<path d="M1.67708 4.87366L1.53673 4.42453L1.38235 4.87366H0.919189L1.29463 5.14383L1.15428 5.59295L1.53673 5.31576L1.90866 5.59295L1.7648 5.14383L2.14726 4.87366H1.67708ZM3.65252 4.87366L3.50866 4.42453L3.36129 4.87366H2.89814L3.27358 5.14383L3.13322 5.59295L3.50866 5.31576L3.88761 5.59295L3.74726 5.14383L4.1227 4.87366H3.65252ZM5.63498 4.87366L5.4841 4.42453L5.34375 4.87366H4.87007L5.25603 5.14383L5.10866 5.59295L5.4841 5.31576L5.87007 5.59295L5.7227 5.14383L6.09814 4.87366H5.63498ZM7.60691 4.87366L7.46656 4.42453L7.31919 4.87366H6.85252L7.23147 5.14383L7.09112 5.59295L7.46656 5.31576L7.84551 5.59295L7.69463 5.14383L8.08059 4.87366H7.60691ZM3.50866 2.64208L3.36129 3.0912H2.89814L3.27358 3.36839L3.13322 3.8105L3.50866 3.53681L3.88761 3.8105L3.74726 3.36839L4.1227 3.0912H3.65252L3.50866 2.64208ZM1.53673 2.64208L1.38235 3.0912H0.919189L1.29463 3.36839L1.15428 3.8105L1.53673 3.53681L1.90866 3.8105L1.7648 3.36839L2.14726 3.0912H1.67708L1.53673 2.64208ZM5.4841 2.64208L5.34375 3.0912H4.87007L5.25603 3.36839L5.10866 3.8105L5.4841 3.53681L5.87007 3.8105L5.7227 3.36839L6.09814 3.0912H5.63498L5.4841 2.64208ZM7.46656 2.64208L7.31919 3.0912H6.85252L7.23147 3.36839L7.09112 3.8105L7.46656 3.53681L7.84551 3.8105L7.69463 3.36839L8.08059 3.0912H7.60691L7.46656 2.64208ZM1.53673 0.866638L1.38235 1.30874H0.919189L1.29463 1.58594L1.15428 2.03155L1.53673 1.75436L1.90866 2.03155L1.7648 1.58594L2.14726 1.30874H1.67708L1.53673 0.866638ZM3.50866 0.866638L3.36129 1.30874H2.89814L3.27358 1.58594L3.13322 2.03155L3.50866 1.75436L3.88761 2.03155L3.74726 1.58594L4.1227 1.30874H3.65252L3.50866 0.866638ZM5.4841 0.866638L5.34375 1.30874H4.87007L5.25603 1.58594L5.10866 2.03155L5.4841 1.75436L5.87007 2.03155L5.7227 1.58594L6.09814 1.30874H5.63498L5.4841 0.866638ZM7.46656 0.866638L7.31919 1.30874H6.85252L7.23147 1.58594L7.09112 2.03155L7.46656 1.75436L7.84551 2.03155L7.69463 1.58594L8.08059 1.30874H7.60691L7.46656 0.866638Z" fill="white"/>
</svg>
