<svg width="14" height="13" viewBox="0 0 14 13" fill="none" xmlns="http://www.w3.org/2000/svg">
<path d="M1.16158 11.3302C0.845171 11.6466 0.830104 12.2117 1.16911 12.5431C1.50058 12.8746 2.06559 12.8671 2.382 12.5507L6.99249 7.93264L11.6105 12.5507C11.9345 12.8746 12.4919 12.8746 12.8234 12.5431C13.1473 12.2041 13.1549 11.6542 12.8234 11.3302L8.21292 6.71221L12.8234 2.10172C13.1549 1.77778 13.1549 1.22031 12.8234 0.888833C12.4844 0.564893 11.9345 0.55736 11.6105 0.8813L6.99249 5.49932L2.382 0.8813C2.06559 0.564893 1.49305 0.549826 1.16911 0.888833C0.837637 1.22031 0.845171 1.78532 1.16158 2.10172L5.7796 6.71221L1.16158 11.3302Z" fill="white"/>
</svg>
